<?xml version="1.0" encoding="UTF-8" standalone="no"?>
<svg width="76px" height="76px" viewBox="0 0 76 76" version="1.1" xmlns="http://www.w3.org/2000/svg" xmlns:xlink="http://www.w3.org/1999/xlink" xmlns:sketch="http://www.bohemiancoding.com/sketch/ns">
    <!-- Generator: Sketch 3.0.1 (7597) - http://www.bohemiancoding.com/sketch -->
    <title>how-many-characters-icon</title>
    <description>Created with Sketch.</description>
    <defs>
        <path id="path-1" d="M26.4967667,0 L49.5032333,0 C57.133,0 60.9469333,0 65.0541,1.29833333 C69.5381,2.93043333 73.0695667,6.4619 74.7016667,10.9459 C76,15.0524333 76,18.8676333 76,26.4967667 L76,49.5032333 C76,57.133 76,60.9469333 74.7016667,65.0541 C73.0695667,69.5381 69.5381,73.0695667 65.0541,74.7010333 C60.9469333,76 57.133,76 49.5032333,76 L26.4967667,76 C18.867,76 15.0524333,76 10.9459,74.7010333 C6.4619,73.0695667 2.93043333,69.5381 1.29833333,65.0541 C0,60.9469333 0,57.133 0,49.5032333 L0,26.4967667 C0,18.8676333 0,15.0524333 1.29833333,10.9459 C2.93043333,6.4619 6.4619,2.93043333 10.9459,1.29833333 C15.0524333,0 18.867,0 26.4967667,0 L26.4967667,0"></path>
        <linearGradient x1="62.5730336%" y1="0%" x2="62.5730336%" y2="100%" id="linearGradient-3">
            <stop stop-color="#00F182" offset="0%"></stop>
            <stop stop-color="#00B64B" offset="100%"></stop>
        </linearGradient>
    </defs>
    <g id="Welcome" stroke="none" stroke-width="1" fill="none" fill-rule="evenodd" sketch:type="MSPage">
        <g id="Desktop-HD" sketch:type="MSArtboardGroup" transform="translate(-904.000000, -533.000000)">
            <g id="Group" sketch:type="MSLayerGroup" transform="translate(904.000000, 415.000000)">
                <g id="how-many-characters-icon" transform="translate(0.000000, 118.000000)">
                    <mask id="mask-2" sketch:name="Icon Shape 2" fill="white">
                        <use xlink:href="#path-1"></use>
                    </mask>
                    <use id="Icon-Shape-2" fill="#D7D7D7" sketch:type="MSShapeGroup" xlink:href="#path-1"></use>
                    <g id="BG-copy-2-+-Imported-Layers-+-Group" mask="url(#mask-2)" sketch:type="MSShapeGroup">
                        <g id="BG-copy-2-+-Imported-Layers" fill="url(#linearGradient-3)">
                            <rect id="BG-copy-3" x="0" y="0" width="76.3436522" height="76.3436522"></rect>
                        </g>
                        <g id="Group" transform="translate(2.678725, 7.366493)" fill="#FFFFFF">
                            <path d="M3.02771341,4.04263735 L6.05542682,5.99966949 L6.05542682,14.0633043 L7.06466463,14.0633043 L7.06466463,6.65201353 L10.092378,8.60904567 L10.092378,14.0633043 L11.1016158,14.0633043 L11.1016158,9.26138971 L14.1293293,11.2184218 L14.1293293,11.2184218 L14.1293293,14.0633043 L15.1385671,14.0633043 L15.1385671,11.8707659 L16.7678666,12.9239011 L17.3175369,12.0814383 L15.1385671,10.673011 L15.1385671,0 L14.1293293,0 L14.1293293,10.020667 L11.1016158,8.06363486 L11.1016158,0 L10.092378,0 L10.092378,7.41129082 L10.092378,7.41129082 L7.06466463,5.45425868 L7.06466463,0 L6.05542682,0 L6.05542682,4.80191464 L6.05542682,4.80191464 L3.02771341,2.8448825 L3.02771341,0 L2.01847561,0 L2.01847561,2.19253846 L0.389176063,1.13940326 L-0.160494241,1.98186608 L2.01847561,3.39029331 L2.01847561,14.0633043 L3.02771341,14.0633043 L3.02771341,4.04263735 Z" id="Rectangle-28" opacity="0.5"></path>
                            <path d="M32.2956097,11.2184218 L29.2678963,9.26138971 L29.2678963,14.0633043 L28.2586585,14.0633043 L28.2586585,8.60904567 L25.2309451,6.65201353 L25.2309451,14.0633043 L24.2217073,14.0633043 L24.2217073,5.99966949 L21.1939939,4.04263735 L21.1939939,14.0633043 L20.1847561,14.0633043 L20.1847561,3.39029331 L18.0057862,1.98186608 L18.5554565,1.13940326 L20.1847561,2.19253846 L20.1847561,2.19253846 L20.1847561,0 L21.1939939,0 L21.1939939,2.8448825 L24.2217073,4.80191464 L24.2217073,0 L25.2309451,0 L25.2309451,5.45425868 L28.2586585,7.41129082 L28.2586585,7.41129082 L28.2586585,0 L29.2678963,0 L29.2678963,8.06363486 L32.2956097,10.020667 L32.2956097,0 L33.3048475,0 L33.3048475,10.673011 L35.4838174,12.0814383 L34.9341471,12.9239011 L33.3048475,11.8707659 L33.3048475,14.0633043 L32.2956097,14.0633043 L32.2956097,11.2184218 Z" id="Rectangle-28" opacity="0.55"></path>
                            <path d="M50.4618902,11.2184218 L47.4341768,9.26138971 L47.4341768,14.0633043 L46.424939,14.0633043 L46.424939,8.60904567 L43.3972256,6.65201353 L43.3972256,14.0633043 L42.3879878,14.0633043 L42.3879878,5.99966949 L39.3602743,4.04263735 L39.3602743,14.0633043 L38.3510365,14.0633043 L38.3510365,3.39029331 L36.1720667,1.98186608 L36.721737,1.13940326 L38.3510365,2.19253846 L38.3510365,2.19253846 L38.3510365,0 L39.3602743,0 L39.3602743,2.8448825 L42.3879878,4.80191464 L42.3879878,0 L43.3972256,0 L43.3972256,5.45425868 L46.424939,7.41129082 L46.424939,7.41129082 L46.424939,0 L47.4341768,0 L47.4341768,8.06363486 L50.4618902,10.020667 L50.4618902,0 L51.471128,0 L51.471128,10.673011 L53.6500978,12.0814383 L53.1004275,12.9239011 L51.471128,11.8707659 L51.471128,14.0633043 L50.4618902,14.0633043 L50.4618902,11.2184218 Z" id="Rectangle-28" opacity="0.6"></path>
                            <path d="M68.6281706,11.2184218 L65.6004572,9.26138971 L65.6004572,14.0633043 L64.5912194,14.0633043 L64.5912194,8.60904567 L61.563506,6.65201353 L61.563506,14.0633043 L60.5542682,14.0633043 L60.5542682,5.99966949 L57.5265548,4.04263735 L57.5265548,14.0633043 L56.517317,14.0633043 L56.517317,3.39029331 L54.3383472,1.98186608 L54.8880175,1.13940326 L56.517317,2.19253846 L56.517317,2.19253846 L56.517317,0 L57.5265548,0 L57.5265548,2.8448825 L60.5542682,4.80191464 L60.5542682,0 L61.563506,0 L61.563506,5.45425868 L64.5912194,7.41129082 L64.5912194,7.41129082 L64.5912194,0 L65.6004572,0 L65.6004572,8.06363486 L68.6281706,10.020667 L68.6281706,0 L69.6374085,0 L69.6374085,10.673011 L71.8163783,12.0814383 L71.266708,12.9239011 L69.6374085,11.8707659 L69.6374085,14.0633043 L68.6281706,14.0633043 L68.6281706,11.2184218 Z" id="Rectangle-28" opacity="0.65"></path>
                            <path d="M14.1293293,31.3088566 L11.1016158,29.3518245 L11.1016158,34.1537391 L10.092378,34.1537391 L10.092378,28.6994804 L7.06466463,26.7424483 L7.06466463,34.1537391 L6.05542682,34.1537391 L6.05542682,26.0901043 L3.02771341,24.1330721 L3.02771341,34.1537391 L2.01847561,34.1537391 L2.01847561,23.4807281 L-0.160494241,22.0723009 L0.389176063,21.229838 L2.01847561,22.2829732 L2.01847561,22.2829732 L2.01847561,20.0904348 L3.02771341,20.0904348 L3.02771341,22.9353173 L6.05542682,24.8923494 L6.05542682,20.0904348 L7.06466463,20.0904348 L7.06466463,25.5446935 L10.092378,27.5017256 L10.092378,27.5017256 L10.092378,20.0904348 L11.1016158,20.0904348 L11.1016158,28.1540696 L14.1293293,30.1111018 L14.1293293,20.0904348 L15.1385671,20.0904348 L15.1385671,30.7634458 L17.3175369,32.1718731 L16.7678666,33.0143359 L15.1385671,31.9612007 L15.1385671,34.1537391 L14.1293293,34.1537391 L14.1293293,31.3088566 Z" id="Rectangle-28" opacity="0.7"></path>
                            <path d="M32.2956097,31.3088566 L29.2678963,29.3518245 L29.2678963,34.1537391 L28.2586585,34.1537391 L28.2586585,28.6994804 L25.2309451,26.7424483 L25.2309451,34.1537391 L24.2217073,34.1537391 L24.2217073,26.0901043 L21.1939939,24.1330721 L21.1939939,34.1537391 L20.1847561,34.1537391 L20.1847561,23.4807281 L18.0057862,22.0723009 L18.5554565,21.229838 L20.1847561,22.2829732 L20.1847561,22.2829732 L20.1847561,20.0904348 L21.1939939,20.0904348 L21.1939939,22.9353173 L24.2217073,24.8923494 L24.2217073,20.0904348 L25.2309451,20.0904348 L25.2309451,25.5446935 L28.2586585,27.5017256 L28.2586585,27.5017256 L28.2586585,20.0904348 L29.2678963,20.0904348 L29.2678963,28.1540696 L32.2956097,30.1111018 L32.2956097,20.0904348 L33.3048475,20.0904348 L33.3048475,30.7634458 L35.4838174,32.1718731 L34.9341471,33.0143359 L33.3048475,31.9612007 L33.3048475,34.1537391 L32.2956097,34.1537391 L32.2956097,31.3088566 Z" id="Rectangle-28" opacity="0.75"></path>
                            <path d="M50.4618902,31.3088566 L47.4341768,29.3518245 L47.4341768,34.1537391 L46.424939,34.1537391 L46.424939,28.6994804 L43.3972256,26.7424483 L43.3972256,34.1537391 L42.3879878,34.1537391 L42.3879878,26.0901043 L39.3602743,24.1330721 L39.3602743,34.1537391 L38.3510365,34.1537391 L38.3510365,23.4807281 L36.1720667,22.0723009 L36.721737,21.229838 L38.3510365,22.2829732 L38.3510365,22.2829732 L38.3510365,20.0904348 L39.3602743,20.0904348 L39.3602743,22.9353173 L42.3879878,24.8923494 L42.3879878,20.0904348 L43.3972256,20.0904348 L43.3972256,25.5446935 L46.424939,27.5017256 L46.424939,27.5017256 L46.424939,20.0904348 L47.4341768,20.0904348 L47.4341768,28.1540696 L50.4618902,30.1111018 L50.4618902,20.0904348 L51.471128,20.0904348 L51.471128,30.7634458 L53.6500978,32.1718731 L53.1004275,33.0143359 L51.471128,31.9612007 L51.471128,34.1537391 L50.4618902,34.1537391 L50.4618902,31.3088566 Z" id="Rectangle-28" opacity="0.8"></path>
                            <path d="M68.6281706,31.3088566 L65.6004572,29.3518245 L65.6004572,34.1537391 L64.5912194,34.1537391 L64.5912194,28.6994804 L61.563506,26.7424483 L61.563506,34.1537391 L60.5542682,34.1537391 L60.5542682,26.0901043 L57.5265548,24.1330721 L57.5265548,34.1537391 L56.517317,34.1537391 L56.517317,23.4807281 L54.3383472,22.0723009 L54.8880175,21.229838 L56.517317,22.2829732 L56.517317,22.2829732 L56.517317,20.0904348 L57.5265548,20.0904348 L57.5265548,22.9353173 L60.5542682,24.8923494 L60.5542682,20.0904348 L61.563506,20.0904348 L61.563506,25.5446935 L64.5912194,27.5017256 L64.5912194,27.5017256 L64.5912194,20.0904348 L65.6004572,20.0904348 L65.6004572,28.1540696 L68.6281706,30.1111018 L68.6281706,20.0904348 L69.6374085,20.0904348 L69.6374085,30.7634458 L71.8163783,32.1718731 L71.266708,33.0143359 L69.6374085,31.9612007 L69.6374085,34.1537391 L68.6281706,34.1537391 L68.6281706,31.3088566 Z" id="Rectangle-28" opacity="0.85"></path>
                            <path d="M14.1293293,51.3992914 L11.1016158,49.4422593 L11.1016158,54.2441739 L10.092378,54.2441739 L10.092378,48.7899152 L7.06466463,46.8328831 L7.06466463,54.2441739 L6.05542682,54.2441739 L6.05542682,46.1805391 L3.02771341,44.2235069 L3.02771341,54.2441739 L2.01847561,54.2441739 L2.01847561,43.5711629 L-0.160494241,42.1627356 L0.389176063,41.3202728 L2.01847561,42.373408 L2.01847561,42.373408 L2.01847561,40.1808696 L3.02771341,40.1808696 L3.02771341,43.0257521 L6.05542682,44.9827842 L6.05542682,40.1808696 L7.06466463,40.1808696 L7.06466463,45.6351282 L10.092378,47.5921604 L10.092378,47.5921604 L10.092378,40.1808696 L11.1016158,40.1808696 L11.1016158,48.2445044 L14.1293293,50.2015366 L14.1293293,40.1808696 L15.1385671,40.1808696 L15.1385671,50.8538806 L17.3175369,52.2623078 L16.7678666,53.1047707 L15.1385671,52.0516355 L15.1385671,54.2441739 L14.1293293,54.2441739 L14.1293293,51.3992914 Z" id="Rectangle-28" opacity="0.9"></path>
                            <path d="M32.2956097,51.3992914 L29.2678963,49.4422593 L29.2678963,54.2441739 L28.2586585,54.2441739 L28.2586585,48.7899152 L25.2309451,46.8328831 L25.2309451,54.2441739 L24.2217073,54.2441739 L24.2217073,46.1805391 L21.1939939,44.2235069 L21.1939939,54.2441739 L20.1847561,54.2441739 L20.1847561,43.5711629 L18.0057862,42.1627356 L18.5554565,41.3202728 L20.1847561,42.373408 L20.1847561,42.373408 L20.1847561,40.1808696 L21.1939939,40.1808696 L21.1939939,43.0257521 L24.2217073,44.9827842 L24.2217073,40.1808696 L25.2309451,40.1808696 L25.2309451,45.6351282 L28.2586585,47.5921604 L28.2586585,47.5921604 L28.2586585,40.1808696 L29.2678963,40.1808696 L29.2678963,48.2445044 L32.2956097,50.2015366 L32.2956097,40.1808696 L33.3048475,40.1808696 L33.3048475,50.8538806 L35.4838174,52.2623078 L34.9341471,53.1047707 L33.3048475,52.0516355 L33.3048475,54.2441739 L32.2956097,54.2441739 L32.2956097,51.3992914 Z" id="Rectangle-28" opacity="0.95"></path>
                            <rect id="Rectangle-28" x="38.3510365" y="40.1808696" width="1.0092378" height="14.0633043"></rect>
                            <rect id="Rectangle-28" x="42.3879878" y="40.1808696" width="1.0092378" height="14.0633043"></rect>
                            <rect id="Rectangle-28" x="42.3879878" y="40.1808696" width="1.0092378" height="14.0633043"></rect>
                            <rect id="Rectangle-28" x="46.424939" y="40.1808696" width="1.0092378" height="14.0633043"></rect>
                        </g>
                    </g>
                </g>
            </g>
        </g>
    </g>
</svg>