<?xml version="1.0" encoding="UTF-8" standalone="no"?>
<svg width="600px" height="102px" viewBox="0 0 600 102" version="1.1" xmlns="http://www.w3.org/2000/svg" xmlns:xlink="http://www.w3.org/1999/xlink" xmlns:sketch="http://www.bohemiancoding.com/sketch/ns">
    <!-- Generator: Sketch 3.0.1 (7597) - http://www.bohemiancoding.com/sketch -->
    <title>manual-apps-logo-large</title>
    <description>Created with Sketch.</description>
    <defs></defs>
    <g id="Welcome" stroke="none" stroke-width="1" fill="none" fill-rule="evenodd" sketch:type="MSPage">
        <g id="Desktop-HD" sketch:type="MSArtboardGroup" transform="translate(-149.000000, -461.000000)" fill="#EDEDED">
            <g id="Rectangle-61-+-Imported-Layers" sketch:type="MSLayerGroup" transform="translate(149.000000, 60.000000)">
                <g id="manual-apps-logo-large" transform="translate(0.000000, 402.000000)" sketch:type="MSShapeGroup">
                    <path d="M168.658065,70.7202 L159.42212,70.7202 L159.42212,41.0179364 L158.661751,41.0179364 L150.243318,68.6239909 C149.716129,70.2546818 149.307834,70.7202 147.788018,70.7202 L143.57788,70.7202 C142,70.7202 141.590783,70.2546818 141.122581,68.6239909 L132.646083,40.7259545 L131.9447,40.7259545 L131.9447,70.7202 L123,70.7202 L123,29.9520091 L135.919816,29.9520091 C137.615668,29.9520091 138.2,30.4753727 138.667281,32.1648273 L145.682949,56.5095 L146.384332,56.5095 L153.16682,32.1648273 C153.63318,30.4753727 154.160369,29.9520091 155.913364,29.9520091 L168.658065,29.9520091 L168.658065,70.7202" id="Fill-1"></path>
                    <path d="M204.841475,60.5862273 L190.752074,60.5862273 L187.712442,70.7202 L178.182488,70.7202 L190.869124,32.4568091 C191.628571,30.2430727 192.037788,29.7775545 194.200922,29.7775545 L202.094009,29.7775545 C204.198157,29.7775545 204.666359,30.3018364 205.425806,32.4568091 L218.111521,70.7202 L207.939171,70.7202 L204.841475,60.5862273 L204.841475,60.5862273 Z M192.856221,53.4813364 L202.736406,53.4813364 L198.176959,38.3386818 L197.41659,38.3386818 L192.856221,53.4813364 L192.856221,53.4813364 Z" id="Fill-2"></path>
                    <path d="M263.298618,70.7202 L255.581567,70.7202 C253.418433,70.7202 252.424885,70.1380727 251.37235,68.2741636 L237.282949,43.1141455 L236.697696,43.1141455 L236.697696,70.7202 L227.578802,70.7202 L227.578802,29.9520091 L236.523502,29.9520091 C238.7447,29.9520091 239.680184,30.4753727 240.731797,32.3980455 L253.593548,55.6363091 L254.17788,55.6363091 L254.17788,29.9520091 L263.298618,29.9520091 L263.298618,70.7202" id="Fill-3"></path>
                    <path d="M312.518894,54.0634636 C312.518894,63.6740727 311.466359,66.1201091 309.303226,68.2741636 C307.43318,70.1380727 304.859908,70.7202 299.540092,70.7202 L290.653456,70.7202 C285.391705,70.7202 282.819355,70.1380727 281.008295,68.3329273 C278.84424,66.1201091 277.850691,63.7319182 277.850691,54.0634636 L277.850691,29.9520091 L287.380645,29.9520091 L287.380645,54.7043545 C287.380645,60.2951636 287.847926,61.1692727 288.491244,61.8092455 C289.075576,62.3922909 290.070046,62.6255091 293.342857,62.6255091 L297.142857,62.6255091 C300.299539,62.6255091 301.294009,62.3922909 301.878341,61.8092455 C302.580645,61.1114273 302.930876,60.3530091 302.930876,54.7043545 L302.930876,29.9520091 L312.518894,29.9520091 L312.518894,54.0634636" id="Fill-4"></path>
                    <path d="M348.643318,60.5862273 L334.553917,60.5862273 L331.514286,70.7202 L321.984332,70.7202 L334.670968,32.4568091 C335.431336,30.2430727 335.840553,29.7775545 338.003687,29.7775545 L345.895853,29.7775545 C348.000922,29.7775545 348.468203,30.3018364 349.228571,32.4568091 L361.914286,70.7202 L351.742857,70.7202 L348.643318,60.5862273 L348.643318,60.5862273 Z M336.658986,53.4813364 L346.539171,53.4813364 L341.978802,38.3386818 L341.219355,38.3386818 L336.658986,53.4813364 L336.658986,53.4813364 Z" id="Fill-5"></path>
                    <path d="M381.787097,63.2076364 L401.254378,63.2076364 L401.254378,70.7202 L372.257143,70.7202 L372.257143,29.9520091 L381.787097,29.9520091 L381.787097,63.2076364" id="Fill-6"></path>
                    <path d="M455.968664,60.5862273 L441.879263,60.5862273 L438.839631,70.7202 L429.309677,70.7202 L441.995392,32.4568091 C442.756682,30.2430727 443.164977,29.7775545 445.329032,29.7775545 L453.220276,29.7775545 C455.325346,29.7775545 455.792627,30.3018364 456.552995,32.4568091 L469.23871,70.7202 L459.067281,70.7202 L455.968664,60.5862273 L455.968664,60.5862273 Z M443.984332,53.4813364 L453.863594,53.4813364 L449.303226,38.3386818 L448.543779,38.3386818 L443.984332,53.4813364 L443.984332,53.4813364 Z" id="Fill-7"></path>
                    <path d="M508.170507,55.1707909 C506.767742,56.3938091 504.546544,56.8593273 501.212903,56.8593273 L488.235023,56.8593273 L488.235023,70.7202 L478.705991,70.7202 L478.705991,29.9520091 L501.212903,29.9520091 C504.546544,29.9520091 506.767742,30.3587636 508.170507,31.5827 C510.040553,33.2712364 511.678341,35.8926455 511.678341,43.4639727 C511.678341,50.8608455 509.982488,53.5391818 508.170507,55.1707909 L508.170507,55.1707909 Z M497.471889,49.4046091 C499.635023,49.4046091 500.278341,49.288 500.687558,48.9390909 C501.329954,48.3560455 501.857143,47.3074818 501.857143,43.3473636 C501.857143,39.3863273 501.271889,38.3965273 500.687558,37.8722455 C500.278341,37.5233364 499.635023,37.3488818 497.471889,37.3488818 L488.235023,37.3488818 L488.235023,49.4046091 L497.471889,49.4046091 L497.471889,49.4046091 Z" id="Fill-8"></path>
                    <path d="M552.42212,55.1707909 C551.019355,56.3938091 548.797235,56.8593273 545.464516,56.8593273 L532.486636,56.8593273 L532.486636,70.7202 L522.956682,70.7202 L522.956682,29.9520091 L545.464516,29.9520091 C548.797235,29.9520091 551.019355,30.3587636 552.42212,31.5827 C554.292166,33.2712364 555.929954,35.8926455 555.929954,43.4639727 C555.929954,50.8608455 554.234101,53.5391818 552.42212,55.1707909 L552.42212,55.1707909 Z M541.723502,49.4046091 C543.886636,49.4046091 544.529954,49.288 544.939171,48.9390909 C545.581567,48.3560455 546.107834,47.3074818 546.107834,43.3473636 C546.107834,39.3863273 545.523502,38.3965273 544.939171,37.8722455 C544.529954,37.5233364 543.886636,37.3488818 541.723502,37.3488818 L532.486636,37.3488818 L532.486636,49.4046091 L541.723502,49.4046091 L541.723502,49.4046091 Z" id="Fill-9"></path>
                    <path d="M596.847926,68.7993636 C595.620276,70.0223818 593.749309,70.7202 590.475576,70.7202 L575.158525,70.7202 C571.709677,70.7202 569.721659,70.2546818 568.318894,68.9150545 C566.623041,67.2265182 565.979724,64.7217182 565.921659,57.4414545 L574.924424,57.4414545 C575.041475,61.4594182 575.21659,62.3922909 575.626728,62.7999636 C575.976959,63.1488727 576.56129,63.3242455 578.257143,63.3242455 L586.967742,63.3242455 C588.662673,63.3242455 589.423041,63.2076364 589.832258,62.7999636 C590.241475,62.3922909 590.41659,61.1692727 590.41659,58.7232364 C590.41659,56.6839545 590.300461,55.8107636 589.773272,55.2864818 C589.423041,54.9375727 588.545622,54.7043545 586.909677,54.5877455 L574.457143,53.3068818 C571.650691,53.0149 569.954839,52.3749273 568.669124,51.1519091 C567.091244,49.5212182 566.38894,47.3662455 566.38894,41.8323636 C566.38894,36.6492273 567.324424,33.7376727 569.195392,31.8737636 C570.423041,30.6507455 572.352074,29.9520091 575.450691,29.9520091 L589.599078,29.9520091 C593.106912,29.9520091 595.152074,30.4175273 596.43871,31.6983909 C598.134562,33.4466091 598.835023,35.6594273 598.952074,42.8230818 L589.949309,42.8230818 C589.832258,39.1540273 589.656221,38.2799182 589.247926,37.8722455 C588.896774,37.5233364 588.371429,37.2901182 586.733641,37.2901182 L578.665438,37.2901182 C577.146544,37.2901182 576.503226,37.4067273 576.152074,37.7565545 C575.743779,38.1642273 575.626728,39.3863273 575.626728,41.6000636 C575.626728,43.6384273 575.743779,44.5116182 576.210138,44.9780545 C576.620276,45.3857273 577.262673,45.4435727 579.075576,45.6767909 L591.645161,46.9585727 C594.450691,47.2496364 596.087558,47.8317636 597.315207,49.0547818 C598.894009,50.6276273 599.596313,52.8982909 599.596313,58.4321727 C599.596313,64.0229818 598.717972,66.9345364 596.847926,68.7993636" id="Fill-10"></path>
                    <path d="M6.33548387,5.3732 L13.4479263,5.3732 L13.4479263,91.1873909 L6.33548387,91.1873909 L6.33548387,5.3732 Z" id="Fill-11"></path>
                    <path d="M19.3741935,9.31036364 C19.3741935,14.5283909 15.1290323,18.7575364 9.89124424,18.7575364 C4.65345622,18.7575364 0.408294931,14.5283909 0.408294931,9.31036364 C0.408294931,4.09141818 4.65345622,-0.136809091 9.89124424,-0.136809091 C15.1290323,-0.136809091 19.3741935,4.09141818 19.3741935,9.31036364" id="Fill-12"></path>
                    <path d="M19.3741935,91.1873909 C19.3741935,96.4063364 15.1290323,100.635482 9.89124424,100.635482 C4.65345622,100.635482 0.408294931,96.4063364 0.408294931,91.1873909 C0.408294931,85.9712 4.65345622,81.7402182 9.89124424,81.7402182 C15.1290323,81.7402182 19.3741935,85.9712 19.3741935,91.1873909" id="Fill-13"></path>
                    <path d="M8.17788018,46.7060727 L81.9963134,46.7060727 L81.9963134,53.7916818 L8.17788018,53.7916818 L8.17788018,46.7060727 Z" id="Fill-14"></path>
                    <path d="M41.4672811,5.3732 L48.5788018,5.3732 L48.5788018,91.1873909 L41.4672811,91.1873909 L41.4672811,5.3732 Z" id="Fill-15"></path>
                    <path d="M54.5059908,9.31036364 C54.5059908,14.5283909 50.2599078,18.7575364 45.0230415,18.7575364 C39.7861751,18.7575364 35.5400922,14.5283909 35.5400922,9.31036364 C35.5400922,4.09141818 39.7861751,-0.136809091 45.0230415,-0.136809091 C50.2599078,-0.136809091 54.5059908,4.09141818 54.5059908,9.31036364" id="Fill-16"></path>
                    <path d="M54.5059908,91.1873909 C54.5059908,96.4063364 50.2599078,100.635482 45.0230415,100.635482 C39.7861751,100.635482 35.5400922,96.4063364 35.5400922,91.1873909 C35.5400922,85.9712 39.7861751,81.7402182 45.0230415,81.7402182 C50.2599078,81.7402182 54.5059908,85.9712 54.5059908,91.1873909" id="Fill-17"></path>
                    <path d="M76.597235,5.3732 L83.7087558,5.3732 L83.7087558,91.1873909 L76.597235,91.1873909 L76.597235,5.3732 Z" id="Fill-18"></path>
                    <path d="M89.6368664,9.31036364 C89.6368664,14.5283909 85.3907834,18.7575364 80.1539171,18.7575364 C74.916129,18.7575364 70.6700461,14.5283909 70.6700461,9.31036364 C70.6700461,4.09141818 74.916129,-0.136809091 80.1539171,-0.136809091 C85.3907834,-0.136809091 89.6368664,4.09141818 89.6368664,9.31036364" id="Fill-19"></path>
                    <path d="M89.6368664,91.1873909 C89.6368664,96.4063364 85.3907834,100.635482 80.1539171,100.635482 C74.916129,100.635482 70.6700461,96.4063364 70.6700461,91.1873909 C70.6700461,85.9712 74.916129,81.7402182 80.1539171,81.7402182 C85.3907834,81.7402182 89.6368664,85.9712 89.6368664,91.1873909" id="Fill-20"></path>
                </g>
            </g>
        </g>
    </g>
</svg>