<?xml version="1.0" encoding="UTF-8" standalone="no"?>
<svg width="29px" height="32px" viewBox="0 0 29 32" version="1.1" xmlns="http://www.w3.org/2000/svg" xmlns:xlink="http://www.w3.org/1999/xlink" xmlns:sketch="http://www.bohemiancoding.com/sketch/ns">
    <!-- Generator: Sketch 3.0.1 (7597) - http://www.bohemiancoding.com/sketch -->
    <title>manual-apps-icon</title>
    <description>Created with Sketch.</description>
    <defs></defs>
    <g id="Welcome" stroke="none" stroke-width="1" fill="none" fill-rule="evenodd" sketch:type="MSPage">
        <g id="Desktop-HD-2" sketch:type="MSArtboardGroup" transform="translate(-149.000000, -14.000000)" fill="#FFFFFF">
            <path d="M174,40.1707772 L174,31 L164,31 L164,40.1707611 L164,40.1707611 C165.165135,40.5826891 166,41.6940536 166,42.9998542 C166,44.6570776 164.656721,46 163,46 C161.343279,46 160,44.6570776 160,42.9998542 C160,41.6940536 160.834865,40.5826891 162,40.1707611 L162,31 L153,31 L153,31 L153,40.1707204 L153,40.1707204 C154.165261,40.582616 155,41.6940106 155,42.9998542 C155,44.6570776 153.657012,46 152,46 C150.342988,46 149,44.6570776 149,42.9998542 C149,41.6940106 149.834739,40.582616 151,40.1707204 L151,19.8293331 C149.834739,19.4175503 149,18.3063668 149,17 C149,15.3426961 150.342988,14 152,14 C153.657012,14 155,15.3426961 155,17 C155,18.3063668 154.165261,19.4175503 153,19.8293331 L153,19.8293331 L153,29 L162,29 L162,29 L162,19.8292924 C160.834865,19.4174772 160,18.3063238 160,17 C160,15.3426961 161.343279,14 163,14 C164.656721,14 166,15.3426961 166,17 C166,18.3063238 165.165135,19.4174772 164,19.8292924 L164,19.8292924 L164,29 L174,29 L174,19.8292763 L174,19.8292763 C172.834803,19.4174481 172,18.3063067 172,17 C172,15.3426961 173.343214,14 175.000146,14 C176.656786,14 178,15.3426961 178,17 C178,18.3063601 177.165129,19.4175389 176,19.8293268 L176,40.1707267 C177.165129,40.5826273 178,41.6940173 178,42.9998542 C178,44.6570776 176.656786,46 175.000146,46 C173.343214,46 172,44.6570776 172,42.9998542 C172,41.6940707 172.834803,40.5827182 174,40.1707772 Z" id="manual-apps-icon" sketch:type="MSShapeGroup"></path>
        </g>
    </g>
</svg>