<?xml version="1.0" encoding="UTF-8" standalone="no"?>
<svg width="76px" height="76px" viewBox="0 0 76 76" version="1.1" xmlns="http://www.w3.org/2000/svg" xmlns:xlink="http://www.w3.org/1999/xlink" xmlns:sketch="http://www.bohemiancoding.com/sketch/ns">
    <!-- Generator: Sketch 3.0.1 (7597) - http://www.bohemiancoding.com/sketch -->
    <title>mind-vault-logo-icon</title>
    <description>Created with Sketch.</description>
    <defs>
        <path id="path-1" d="M26.4967667,0 L49.5032333,0 C57.133,0 60.9469333,0 65.0541,1.29833333 C69.5381,2.93043333 73.0695667,6.4619 74.7016667,10.9459 C76,15.0524333 76,18.8676333 76,26.4967667 L76,49.5032333 C76,57.133 76,60.9469333 74.7016667,65.0541 C73.0695667,69.5381 69.5381,73.0695667 65.0541,74.7010333 C60.9469333,76 57.133,76 49.5032333,76 L26.4967667,76 C18.867,76 15.0524333,76 10.9459,74.7010333 C6.4619,73.0695667 2.93043333,69.5381 1.29833333,65.0541 C0,60.9469333 0,57.133 0,49.5032333 L0,26.4967667 C0,18.8676333 0,15.0524333 1.29833333,10.9459 C2.93043333,6.4619 6.4619,2.93043333 10.9459,1.29833333 C15.0524333,0 18.867,0 26.4967667,0 L26.4967667,0"></path>
        <linearGradient x1="50%" y1="0%" x2="50%" y2="100%" id="linearGradient-3">
            <stop stop-color="#FFFFFF" offset="0%"></stop>
            <stop stop-color="#C61443" offset="0%"></stop>
            <stop stop-color="#8F071C" offset="100%"></stop>
        </linearGradient>
    </defs>
    <g id="Welcome" stroke="none" stroke-width="1" fill="none" fill-rule="evenodd" sketch:type="MSPage">
        <g id="Desktop-HD" sketch:type="MSArtboardGroup" transform="translate(-904.000000, -415.000000)">
            <g id="Group" sketch:type="MSLayerGroup" transform="translate(904.000000, 415.000000)">
                <g id="mind-vault-logo-icon">
                    <mask id="mask-2" sketch:name="Icon Shape" fill="white">
                        <use xlink:href="#path-1"></use>
                    </mask>
                    <use id="Icon-Shape" sketch:type="MSShapeGroup" xlink:href="#path-1"></use>
                    <g id="Rectangle-1-+-logo" mask="url(#mask-2)" sketch:type="MSShapeGroup">
                        <rect id="Rectangle-2" fill="url(#linearGradient-3)" x="0" y="0" width="76" height="76"></rect>
                        <g id="logo" transform="translate(14.000000, 19.333333)" fill="#710008">
                            <path d="M7.78487549,10.0333333 L9.11304409,10.0333333 L11.6402062,17.5947297 L10.1157895,32.9333333 L15.0509286,32.9333333 L15.0509286,38 L0,38 L0,32.9333333 L4.95789473,32.9333333 L7.78487549,10.0333333 Z" id="Fill-4"></path>
                            <path d="M40.7848755,10.0333333 L42.1130441,10.0333333 L44.6402062,17.5947297 L43.1157895,32.9333333 L48.0509286,32.9333333 L48.0509286,38 L33,38 L33,32.9333333 L37.9578947,32.9333333 L40.7848755,10.0333333 Z" id="Fill-4" transform="translate(40.500000, 24.133333) scale(-1, 1) translate(-40.500000, -24.133333) "></path>
                            <path d="M3.40000001,0 L3.40000001,5.06046844 L10.4386507,5.06046844 L22.3498411,30.0542857 L26.2623655,30.0542857 L38.174662,5.06046844 L45.5422601,5.06046844 L45.4133127,0 L33.9827762,0 L24.4069329,21.9456638 L14.6305365,0 L3.40000001,0 Z" id="Fill-31"></path>
                        </g>
                    </g>
                </g>
            </g>
        </g>
    </g>
</svg>